<svg xmlns="http://www.w3.org/2000/svg" width="1024" height="1024" viewBox="0 0 1024 1024" fill="none"><metadata><rdf:RDF xmlns:rdf="http://www.w3.org/1999/02/22-rdf-syntax-ns#" xmlns:dc="http://purl.org/dc/elements/1.1/"><rdf:Description><dc:creator>RealFaviconGenerator</dc:creator><dc:source>https://realfavicongenerator.net</dc:source></rdf:Description></rdf:RDF></metadata><rect width="1024" height="1024" fill="#0A0A0A"></rect><path d="M256 435.4V230.6H332.8V256.2H281.6V409.8H332.8V435.4H256ZM358.4 409.8H332.8V256.2H358.4V409.8ZM384 435.4V230.6H486.4V256.2H409.6V307.4H486.4V333H409.6V409.8H486.4V435.4H384ZM512 409.8V256.2H537.6V409.8H512ZM614.4 409.8V435.4H537.6V409.8H614.4ZM614.4 230.6V256.2H537.6V230.6H614.4ZM640 435.4V230.6H665.6V307.4H691.2V333H665.6V435.4H640ZM691.2 333H716.8V384.2H691.2V333ZM691.2 307.4V281.8H716.8V307.4H691.2ZM716.8 435.4V384.2H742.4V435.4H716.8ZM716.8 281.8V230.6H742.4V281.8H716.8Z" fill="#FCFCFC"></path><path d="M256 742.8V589.2H281.6V742.8H256ZM281.6 742.8H332.8V768.4H281.6V742.8ZM281.6 589.2V563.6H358.4V589.2H281.6ZM307.2 666V640.4H358.4V742.8H332.8V666H307.2ZM384 742.8V563.6H409.6V742.8H384ZM486.4 742.8H460.8V563.6H486.4V742.8ZM409.6 742.8H460.8V768.4H409.6V742.8ZM512 768.4V563.6H588.8V589.2H537.6V666H588.8V717.2H563.2V691.6H537.6V768.4H512ZM588.8 768.4V717.2H614.4V768.4H588.8ZM588.8 666V589.2H614.4V666H588.8ZM640 742.8V563.6H665.6V742.8H640ZM742.4 742.8H716.8V563.6H742.4V742.8ZM665.6 742.8H716.8V768.4H665.6V742.8Z" fill="#FCFCFC"></path></svg>